<svg width="23" height="23" viewBox="0 0 23 23" fill="none" xmlns="http://www.w3.org/2000/svg">
<path d="M18.6875 7.65899L11.5 14.6668L4.31251 7.65899C4.17786 7.52434 4.0207 7.45702 3.84101 7.45702C3.66132 7.45702 3.50416 7.52434 3.36951 7.65899C3.23486 7.79364 3.16754 7.9508 3.16754 8.13049C3.16754 8.31018 3.22744 8.45992 3.34723 8.57971L11.0062 16.0367C11.1409 16.1714 11.3057 16.2387 11.5007 16.2387C11.6957 16.2387 11.8606 16.1714 11.9952 16.0367L19.6542 8.60199C19.774 8.46734 19.8339 8.30634 19.8339 8.11899C19.8339 7.93163 19.7666 7.77447 19.6319 7.64749C19.4973 7.52051 19.3401 7.45678 19.1604 7.4563C18.9808 7.45582 18.8236 7.52315 18.6889 7.65827L18.6875 7.65899Z" fill="#01795C"/>
</svg>
