<svg width="29" height="34" viewBox="0 0 29 34" fill="none" xmlns="http://www.w3.org/2000/svg">
<path fill-rule="evenodd" clip-rule="evenodd" d="M0.419044 9.48581C0.41922 8.70956 0.957638 7.75665 1.62385 7.35587L13.2706 0.349575C13.9359 -0.0506784 15.0135 -0.0506785 15.68 0.350982L27.3308 7.37063C27.9963 7.77141 28.5354 8.72467 28.5353 9.50426L28.5303 23.497C28.5302 24.2745 27.9909 25.2311 27.3266 25.6334L15.6547 32.7007C14.9901 33.1032 13.9139 33.1031 13.2483 32.699L1.61734 25.6352C0.952892 25.2318 0.41465 24.2759 0.415001 23.4993L0.419044 9.48598V9.48581ZM2.86873 8.3478L14.4411 14.8093L25.4742 8.43235L14.4225 1.94286L2.86856 8.3478H2.86873ZM2.12236 10.4391C2.12236 10.7252 1.93516 23.0707 1.93516 23.0707C1.92918 23.4585 2.19303 23.935 2.52701 24.1366L13.3572 30.6725L13.4569 17.0648C13.4569 17.0648 2.12254 10.1527 2.12254 10.4391H2.12236ZM15.5005 30.643L26.2077 23.8473C26.6177 23.5872 26.9501 22.9833 26.9501 22.4975V10.3696L15.5005 16.9637V30.643Z" fill="white"/>
<path fill-rule="evenodd" clip-rule="evenodd" d="M5.66875 17.2536C4.82817 17.7391 3.71371 17.3828 3.17969 16.458C2.64584 15.5332 2.89457 14.3899 3.73516 13.9046C4.57592 13.4191 5.69037 13.7754 6.22422 14.7002C6.75824 15.625 6.50951 16.7682 5.66875 17.2536ZM11.2938 20.945C10.4532 21.4305 9.33871 21.0742 8.80469 20.1494C8.27084 19.2246 8.51957 18.0813 9.36016 17.596C10.2009 17.1105 11.3154 17.4668 11.8492 18.3916C12.3832 19.3164 12.1345 20.4596 11.2938 20.945ZM5.66875 23.7575C4.82817 24.243 3.71371 23.8867 3.17969 22.9619C2.64584 22.0371 2.89457 20.8938 3.73516 20.4085C4.57592 19.923 5.69037 20.2793 6.22422 21.2041C6.75824 22.1289 6.50951 23.2721 5.66875 23.7575ZM11.2938 27.4489C10.4532 27.9344 9.33871 27.5781 8.80469 26.6533C8.27084 25.7285 8.51957 24.5852 9.36016 24.0999C10.2009 23.6144 11.3154 23.9707 11.8492 24.8955C12.3832 25.8203 12.1345 26.9636 11.2938 27.4489ZM25.0465 13.7288C24.2058 13.2433 23.0915 13.5996 22.5575 14.5244C22.0236 15.4492 22.2722 16.5925 23.1129 17.0778C23.9537 17.5633 25.0681 17.207 25.602 16.2822C26.136 15.3574 25.8873 14.2141 25.0465 13.7288V13.7288ZM22.1922 18.8265C21.3516 18.341 20.2372 18.6973 19.7031 19.6221C19.1693 20.5468 19.418 21.6901 20.2586 22.1754C21.0994 22.661 22.2138 22.3046 22.7477 21.3799C23.2817 20.4551 23.0329 19.3118 22.1922 18.8265ZM19.2039 23.7483C18.3633 23.2628 17.2489 23.6191 16.7148 24.5439C16.181 25.4687 16.4297 26.612 17.2703 27.0973C18.1111 27.5828 19.2255 27.2265 19.7594 26.3017C20.2934 25.377 20.0447 24.2337 19.2039 23.7483ZM14.5879 6.12891C13.4715 6.12891 12.5664 6.99463 12.5664 8.0625C12.5664 9.13037 13.4715 9.99609 14.5879 9.99609C15.7043 9.99609 16.6094 9.13037 16.6094 8.0625C16.6094 6.99463 15.7043 6.12891 14.5879 6.12891Z" fill="white"/>
</svg>
