<svg width="40" height="40" viewBox="0 0 40 40" fill="none" xmlns="http://www.w3.org/2000/svg">
<path d="M20 3.33337C10.8167 3.33337 3.33337 10.8167 3.33337 20C3.33337 29.1834 10.8167 36.6667 20 36.6667C29.1834 36.6667 36.6667 29.1834 36.6667 20C36.6667 10.8167 29.1834 3.33337 20 3.33337ZM18.3334 16.6667V11.6667C18.3334 10.75 19.0834 10 20 10C20.9167 10 21.6667 10.75 21.6667 11.6667V16.6667H24.65C25.4 16.6667 25.7667 17.5667 25.2334 18.0834L20.5834 22.7334C20.25 23.0667 19.7334 23.0667 19.4 22.7334L14.75 18.0834C14.6349 17.9659 14.5571 17.8169 14.5264 17.6553C14.4958 17.4936 14.5136 17.3265 14.5778 17.175C14.642 17.0235 14.7495 16.8944 14.887 16.804C15.0244 16.7135 15.1855 16.6657 15.35 16.6667H18.3334ZM26.6667 28.3334H13.3334C12.4167 28.3334 11.6667 27.5834 11.6667 26.6667C11.6667 25.75 12.4167 25 13.3334 25H26.6667C27.5834 25 28.3334 25.75 28.3334 26.6667C28.3334 27.5834 27.5834 28.3334 26.6667 28.3334Z" fill="white"/>
</svg>
