<svg width="45" height="45" viewBox="0 0 45 45" fill="none" xmlns="http://www.w3.org/2000/svg">
<path d="M11.25 37.5H24.375V41.25H11.25C9.16875 41.25 7.5 39.5813 7.5 37.5V7.5C7.5 6.50544 7.89509 5.55161 8.59835 4.84835C9.30161 4.14509 10.2554 3.75 11.25 3.75H33.75C34.7446 3.75 35.6984 4.14509 36.4016 4.84835C37.1049 5.55161 37.5 6.50544 37.5 7.5V23.5125L34.6875 21.975L33.75 22.5V7.5H24.375V22.5L19.6875 18.2812L15 22.5V7.5H11.25V37.5ZM45 31.875L34.6875 26.25L24.375 31.875L34.6875 37.5L45 31.875ZM28.125 35.7938V39.5438L34.6875 43.125L41.25 39.5438V35.7938L34.6875 39.375L28.125 35.7938Z" fill="white"/>
</svg>
