<svg width="38" height="35" viewBox="0 0 38 35" fill="none" xmlns="http://www.w3.org/2000/svg">
<path d="M6.84375 0.625C5.22759 0.625 3.67762 1.26702 2.53482 2.40982C1.39202 3.55262 0.75 5.10259 0.75 6.71875V23.5938C0.75 25.2099 1.39202 26.7599 2.53482 27.9027C3.67762 29.0455 5.22759 29.6875 6.84375 29.6875H26.5312C28.1474 29.6875 29.6974 29.0455 30.8402 27.9027C31.983 26.7599 32.625 25.2099 32.625 23.5938V6.71875C32.625 5.10259 31.983 3.55262 30.8402 2.40982C29.6974 1.26702 28.1474 0.625 26.5312 0.625H6.84375ZM12 19.8438V9.53312C12.0001 9.28073 12.0681 9.03301 12.1969 8.81595C12.3257 8.5989 12.5105 8.42051 12.732 8.2995C12.9535 8.17849 13.2035 8.11933 13.4558 8.12821C13.708 8.1371 13.9532 8.21371 14.1656 8.35L22.8244 13.8981C22.9568 13.9829 23.0657 14.0997 23.1411 14.2376C23.2166 14.3756 23.2561 14.5303 23.2561 14.6875C23.2561 14.8447 23.2166 14.9994 23.1411 15.1374C23.0657 15.2753 22.9568 15.3921 22.8244 15.4769L14.1656 21.025C13.9532 21.1613 13.708 21.2379 13.4558 21.2468C13.2035 21.2557 12.9535 21.1965 12.732 21.0755C12.5105 20.9545 12.3257 20.7761 12.1969 20.559C12.0681 20.342 12.0001 20.0943 12 19.8419V19.8438ZM11.5312 34.375C10.5075 34.376 9.50005 34.1187 8.60207 33.6271C7.70408 33.1355 6.94456 32.4254 6.39375 31.5625H27.4688C29.3336 31.5625 31.122 30.8217 32.4406 29.5031C33.7592 28.1845 34.5 26.3961 34.5 24.5312V6.26875C35.3629 6.81956 36.073 7.57908 36.5646 8.47707C37.0562 9.37505 37.3135 10.3825 37.3125 11.4062V24.5312C37.3125 29.9688 32.9063 34.375 27.4688 34.375H11.5312Z" fill="white"/>
</svg>
